<?xml version="1.0" encoding="UTF-8" standalone="no"?>
<!-- Created with Inkscape (http://www.inkscape.org/) -->

<svg
   width="100mm"
   height="100mm"
   viewBox="0 0 100 100"
   version="1.1"
   id="svg1"
   inkscape:version="1.4 (86a8ad7, 2024-10-11)"
   sodipodi:docname="Carita Feli.svg"
   inkscape:export-filename="Carita Feli.svg"
   inkscape:export-xdpi="96"
   inkscape:export-ydpi="96"
   xmlns:inkscape="http://www.inkscape.org/namespaces/inkscape"
   xmlns:sodipodi="http://sodipodi.sourceforge.net/DTD/sodipodi-0.dtd"
   xmlns="http://www.w3.org/2000/svg"
   xmlns:svg="http://www.w3.org/2000/svg">
  <sodipodi:namedview
     id="namedview1"
     pagecolor="#ffffff"
     bordercolor="#000000"
     borderopacity="0.25"
     inkscape:showpageshadow="2"
     inkscape:pageopacity="0.0"
     inkscape:pagecheckerboard="0"
     inkscape:deskcolor="#d1d1d1"
     inkscape:document-units="mm"
     inkscape:zoom="0.75811588"
     inkscape:cx="268.42862"
     inkscape:cy="268.42862"
     inkscape:window-width="1157"
     inkscape:window-height="1101"
     inkscape:window-x="753"
     inkscape:window-y="0"
     inkscape:window-maximized="0"
     inkscape:current-layer="layer1" />
  <defs
     id="defs1" />
  <g
     inkscape:label="Capa 1"
     inkscape:groupmode="layer"
     id="layer1">
    <path
       id="path57"
       style="fill:#b3ff80;fill-opacity:1;stroke:#000000;stroke-width:1.98762;stroke-dasharray:none;stroke-opacity:1"
       d="M 45.125665,85.089879 C 28.5658,82.809909 15.582121,68.880209 14.593507,52.333119 13.727979,37.846174 21.383099,24.638334 34.346539,18.252044 c 5.088278,-2.50669 9.882922,-3.607383 15.713776,-3.607383 9.925807,0 18.859308,3.859693 25.758647,11.128963 6.26768,6.60378 9.664321,15.12086 9.664321,24.233325 0,12.56039 -6.560641,23.97536 -17.552321,30.53945 -3.98711,2.38101 -8.865459,4.02007 -13.804638,4.63811 -2.01437,0.25204 -6.852087,0.20118 -9.000659,-0.0944 z m 8.447639,-30.82579 c 2.122349,-2.31476 3.858819,-4.267 3.858819,-4.33835 0,-0.21632 -2.08287,-2.155935 -2.24811,-2.093445 -0.0847,0.032 -1.388869,1.407435 -2.898219,3.056525 -1.509365,1.64905 -2.805683,3.02282 -2.880718,3.05281 -0.07505,0.0297 -1.447793,-1.18038 -3.050572,-2.68966 -1.602768,-1.5093 -2.975922,-2.744165 -3.051443,-2.744165 -0.181013,0 -1.987287,2.080525 -1.987287,2.289035 0,0.24693 7.987472,7.75282 8.206653,7.7118 0.105611,-0.0196 1.928506,-1.92978 4.050877,-4.24455 z m -18.355582,-14.222095 2.958108,-2.99833 2.9187,2.95071 2.918695,2.95071 1.135896,-1.13962 1.135892,-1.13962 -3.964158,-4.01569 c -2.18029,-2.20864 -4.04383,-4.0157 -4.141206,-4.0157 -0.09739,0 -2.01736,1.86419 -4.266643,4.14264 l -4.089607,4.14264 1.0365,1.0603 c 0.570076,0.58315 1.118219,1.06029 1.218104,1.06029 0.09989,0 1.512756,-1.34925 3.139719,-2.99833 z m 23.128012,-0.87148 3.006598,-2.98795 2.91658,2.94012 2.9166,2.94012 1.04718,-1.04897 c 0.57589,-0.57692 1.04714,-1.13018 1.04714,-1.22944 0,-0.0993 -1.77682,-1.98041 -3.94849,-4.18031 l -3.94851,-3.99983 -4.153239,4.08194 c -2.28428,2.24506 -4.15322,4.1611 -4.15322,4.25786 0,0.20641 1.92941,2.21441 2.12776,2.21441 0.0743,0 1.48796,-1.34457 3.141601,-2.98795 z m -2.0307,9.71027 -6.874575,7.493495 -7.131774,-6.70441 m 11.843768,-8.619755 7.17171,-7.20248 6.85479,6.99417 m -37.141914,1.12991 7.171709,-7.20248 6.854804,6.99417 m 42.04764,8.236595 A 37.111191,37.037818 0 0 1 50,87.037809 37.111191,37.037818 0 0 1 12.888808,49.999999 37.111191,37.037818 0 0 1 50,12.962191 37.111191,37.037818 0 0 1 87.111192,49.999999 Z" />
  </g>
</svg>
