<?xml version="1.0" encoding="UTF-8" standalone="no"?>
<!-- Created with Inkscape (http://www.inkscape.org/) -->

<svg
   width="100mm"
   height="100mm"
   viewBox="0 0 100 100"
   version="1.1"
   id="svg1"
   sodipodi:docname="Carita Muerta.svg"
   inkscape:export-filename="Carita Muerta.svg"
   inkscape:export-xdpi="96"
   inkscape:export-ydpi="96"
   inkscape:version="1.4 (86a8ad7, 2024-10-11)"
   xmlns:inkscape="http://www.inkscape.org/namespaces/inkscape"
   xmlns:sodipodi="http://sodipodi.sourceforge.net/DTD/sodipodi-0.dtd"
   xmlns="http://www.w3.org/2000/svg"
   xmlns:svg="http://www.w3.org/2000/svg">
  <sodipodi:namedview
     id="namedview1"
     pagecolor="#ffffff"
     bordercolor="#000000"
     borderopacity="0.25"
     inkscape:showpageshadow="2"
     inkscape:pageopacity="0.0"
     inkscape:pagecheckerboard="0"
     inkscape:deskcolor="#d1d1d1"
     inkscape:document-units="mm"
     showguides="true"
     inkscape:zoom="1.0721378"
     inkscape:cx="214.52467"
     inkscape:cy="377.28361"
     inkscape:window-width="1920"
     inkscape:window-height="1111"
     inkscape:window-x="-9"
     inkscape:window-y="-9"
     inkscape:window-maximized="1"
     inkscape:current-layer="layer1" />
  <defs
     id="defs1">
    <inkscape:path-effect
       effect="bspline"
       id="path-effect5"
       is_visible="true"
       lpeversion="1.3"
       weight="33.333333"
       steps="2"
       helper_size="0"
       apply_no_weight="true"
       apply_with_weight="true"
       only_selected="false"
       uniform="false" />
    <inkscape:path-effect
       effect="bspline"
       id="path-effect5-2"
       is_visible="true"
       lpeversion="1.3"
       weight="33.333333"
       steps="2"
       helper_size="0"
       apply_no_weight="true"
       apply_with_weight="true"
       only_selected="false"
       uniform="false" />
  </defs>
  <g
     inkscape:label="Capa 1"
     inkscape:groupmode="layer"
     id="layer1">
    <path
       id="path1-1-6"
       style="fill:#ffffff;fill-opacity:1;stroke:#000000;stroke-width:3;stroke-dasharray:none;stroke-opacity:1"
       d="M 50.174236,14.139949 A 37.168625,36.645123 0 0 0 13.005967,50.785259 37.168625,36.645123 0 0 0 50.174236,87.430556 37.168625,36.645123 0 0 0 87.343035,50.785259 37.168625,36.645123 0 0 0 50.174236,14.139949 Z m 14.741739,51.41443 c 0.21825,-10e-4 0.43778,0.21306 0.44028,0.64492 0.003,0.4501 0.0196,0.90036 0.008,1.35031 -0.0417,1.58636 -0.19416,3.20586 -0.78599,4.69583 -0.19739,0.49693 -0.421329,0.99141 -0.726579,1.43041 -0.27892,0.40115 -0.67182,0.70969 -1.00769,1.06453 -0.41268,0.21749 -0.79482,0.50708 -1.23816,0.65216 -2.00905,0.65744 -4.19805,-0.31643 -5.81877,-1.45831 -0.4638,-0.32678 -0.87504,-0.72246 -1.31258,-1.08365 -0.37885,-0.39881 -0.78375,-0.77456 -1.13688,-1.19631 -0.31257,-0.3733 -0.59039,-0.77519 -0.855759,-1.18339 -0.60707,-0.9338 -1.11585,-1.96156 -1.26659,-3.07475 -0.115831,-0.85597 0.74277,-0.92678 0.86919,-0.0723 0.14557,0.98382 0.61339,1.88927 1.15394,2.71301 0.25005,0.38106 0.51163,0.75709 0.80563,1.10536 0.32975,0.3906 0.70755,0.73752 1.06144,1.10639 0.41189,0.33736 0.79901,0.7076 1.23558,1.01235 1.40113,0.97804 3.392589,1.89991 5.12424,1.27124 0.347099,-0.12601 0.638649,-0.37075 0.95808,-0.55604 0.26173,-0.29662 0.57022,-0.55798 0.78548,-0.88987 0.24679,-0.38052 0.4281,-0.80222 0.58756,-1.2268 0.52336,-1.39352 0.660839,-2.88071 0.6966,-4.35581 0.0105,-0.43258 -0.006,-0.86541 -0.009,-1.29811 -0.003,-0.43209 0.21377,-0.64968 0.43201,-0.65112 z" />
    <path
       id="path3-9-5"
       style="fill:#ffffff;fill-opacity:1;stroke:#000000;stroke-width:3;stroke-dasharray:none;stroke-opacity:1"
       d="m 57.402881,43.782959 -7.340028,6.96407 -6.709294,-7.07149 m -0.383415,14.187 7.182808,-7.12612 6.865413,6.92002" />
    <path
       id="path3-9-5-2"
       style="fill:#ffffff;fill-opacity:1;stroke:#000000;stroke-width:3;stroke-dasharray:none;stroke-opacity:1"
       d="m 57.402878,43.78296 -7.34002,6.96407 -6.7093,-7.07149 m -0.38341,14.187 7.18281,-7.12612 6.86541,6.92002" />
    <path
       style="fill:#ffffff;fill-opacity:1;stroke:#000000;stroke-width:3;stroke-dasharray:none;stroke-opacity:1"
       d="m 34.600323,53.708138 31.148356,-5.84577"
       id="path7" />
    <path
       style="fill:#ff5555;fill-opacity:1;stroke:#000000;stroke-width:1.97859;stroke-dasharray:none;stroke-opacity:1"
       d="M 46.498242,85.647765 C 34.201951,84.369169 23.238018,76.658033 17.989833,65.59728 9.8908468,48.528348 16.95518,28.241191 34.002855,19.611528 c 10.021231,-5.072824 21.813223,-5.160266 31.902098,-0.236566 10.565868,5.156488 17.808448,15.026647 19.512102,26.591003 0.373714,2.536748 0.372311,7.076585 -0.003,9.597532 -1.749801,11.754551 -9.062519,21.63898 -19.788129,26.74715 -5.873403,2.797262 -12.761854,3.999057 -19.127724,3.337118 z m 16.403055,-9.09755 c 1.76579,-0.917839 2.915814,-2.561582 3.597894,-5.1425 0.48187,-1.823339 0.581078,-5.640749 0.20089,-7.729942 -0.148455,-0.81579 -0.293587,-1.511268 -0.322513,-1.545505 -0.0507,-0.06001 -31.164138,5.739177 -31.277766,5.829816 -0.138465,0.110453 0.560302,3.044714 0.725072,3.044714 0.179972,0 12.898159,-2.355943 13.683503,-2.534762 0.276244,-0.0629 0.392629,-0.0095 0.392629,0.180036 0,0.455864 1.137195,2.556992 2.018358,3.729199 1.430631,1.903158 3.89899,3.721222 5.988171,4.41057 1.464646,0.483274 3.818253,0.369392 4.993762,-0.241626 z m 6.23719,-18.851599 2.919256,2.919259 1.049422,-1.038474 c 0.577181,-0.571156 1.049422,-1.118587 1.049422,-1.216506 0,-0.09792 -1.268267,-1.448057 -2.818373,-3.000298 l -2.818371,-2.822261 1.989495,-1.898015 c 1.094221,-1.043908 2.441014,-2.318588 2.992871,-2.832623 0.551858,-0.514033 1.003377,-1.023832 1.003377,-1.132883 0,-0.10905 -0.470522,-0.663887 -1.045604,-1.232969 L 72.414375,44.409151 71.7586,45.029633 c -0.360678,0.341265 -1.754587,1.659671 -3.097578,2.92979 l -2.441808,2.309309 -2.88046,-2.99407 -2.880463,-2.994069 -1.119907,1.138671 -1.119908,1.138671 2.852082,2.986876 2.852078,2.986876 -3.037466,3.041192 -3.037467,3.04119 1.127381,1.137489 1.127379,1.137491 3.058382,-3.054845 3.058385,-3.054842 z m -39.525022,0.0044 3.011927,-3.008236 2.926376,2.922577 2.926376,2.922579 1.127303,-1.137412 1.127299,-1.137409 -2.933636,-2.937449 -2.933637,-2.937449 0.56637,-0.47657 c 0.311505,-0.262113 1.706848,-1.564278 3.100769,-2.893703 l 2.534396,-2.417138 -1.007277,-1.147303 c -0.554001,-0.631018 -1.059529,-1.14678 -1.123394,-1.146143 -0.06387,5.29e-4 -1.487155,1.296305 -3.162864,2.87926 -1.675712,1.582954 -3.091016,2.8781 -3.145126,2.8781 -0.05411,0 -1.313669,-1.293868 -2.799024,-2.875264 -1.485355,-1.581394 -2.781628,-2.877061 -2.880609,-2.879259 -0.190346,-0.0042 -2.175793,1.934127 -2.175793,2.124186 0,0.06122 1.254054,1.433134 2.786787,3.048701 l 2.786791,2.937393 -2.961291,2.968329 c -1.628709,1.632582 -2.961288,3.043759 -2.961288,3.13595 0,0.171728 1.922684,2.184498 2.086724,2.184498 0.04999,0 1.446262,-1.353706 3.102821,-3.008238 z"
       id="path59" />
    <path
       style="fill:#ff5555;fill-opacity:1;stroke:#000000;stroke-width:1.97859;stroke-dasharray:none;stroke-opacity:1"
       d="m 58.723144,73.601467 c -1.074446,-0.426678 -2.745287,-1.707536 -3.560087,-2.72914 -0.854655,-1.07157 -1.446303,-2.187874 -1.24936,-2.357247 0.07976,-0.06859 1.990357,-0.464473 4.245779,-0.879734 2.255419,-0.415261 4.250256,-0.794004 4.432969,-0.841648 0.316564,-0.08255 0.326375,-0.0011 0.208357,1.729375 -0.313058,4.590314 -1.520378,6.093934 -4.077658,5.078394 z"
       id="path60" />
    <path
       style="fill:#000000;fill-opacity:1;stroke:#000000;stroke-width:3.73907;stroke-dasharray:none;stroke-opacity:1"
       d="m 137.85359,263.59957 c -0.50398,-1.416 -0.76891,-3.41778 -0.47628,-3.59864 0.17781,-0.10989 2.06158,-0.52663 4.18615,-0.92607 2.12457,-0.39945 13.55185,-2.55118 25.39396,-4.78164 17.38614,-3.27466 21.49146,-3.95497 21.32512,-3.53387 -0.1133,0.28682 -0.28873,1.30057 -0.38985,2.25276 -0.10112,0.9522 -0.21085,1.73127 -0.24384,1.73127 -0.033,0 -4.79795,0.89492 -10.58878,1.98872 -5.79084,1.0938 -16.61296,3.10572 -24.04916,4.47093 -7.4362,1.36521 -13.85287,2.56355 -14.25926,2.66296 -0.45857,0.11218 -0.79928,0.0111 -0.89806,-0.26642 z"
       id="path67"
       transform="scale(0.26458333)" />
    <path
       style="fill:#000000;fill-opacity:1;stroke:#000000;stroke-width:3.73907;stroke-dasharray:none;stroke-opacity:1"
       d="m 202.7889,254.18502 c -0.45892,-2.08879 -1.17587,-3.8813 -1.96757,-4.91927 l -0.83905,-1.10005 0.75203,-0.17725 c 0.41362,-0.0975 9.65569,-1.81479 20.53793,-3.81624 10.88224,-2.00145 21.26984,-3.91438 23.08354,-4.25095 1.81371,-0.33658 3.3536,-0.55824 3.42198,-0.49258 0.14984,0.14386 0.67343,2.91746 0.57048,3.02202 -0.0398,0.0404 -0.648,-0.0854 -1.35155,-0.2797 -3.45931,-0.95516 -7.26997,1.21411 -8.52473,4.85282 -0.32871,0.95326 -0.65116,1.31695 -1.23754,1.39588 -3.12996,0.42129 -31.88917,5.99163 -33.67606,6.52267 -0.41439,0.12316 -0.6206,-0.0798 -0.76946,-0.75735 z"
       id="path68"
       transform="scale(0.26458333)" />
    <path
       style="fill:#000000;fill-opacity:1;stroke:#000000;stroke-width:3.73907;stroke-dasharray:none;stroke-opacity:1"
       d="m 225.58062,222.87035 -1.29762,-1.47253 11.27301,-11.27656 c 6.20016,-6.20211 11.27301,-11.39986 11.27301,-11.55056 0,-0.15069 -1.99779,-2.36898 -4.43954,-4.92951 -2.44174,-2.56054 -4.39731,-4.69774 -4.34571,-4.74934 0.0516,-0.0516 1.1643,-0.29624 2.47267,-0.54363 l 2.37886,-0.44981 3.49153,3.74364 c 1.92034,2.05901 3.58774,3.74365 3.70534,3.74365 0.11759,0 5.4741,-4.97007 11.90335,-11.04459 l 11.68955,-11.04458 1.41139,1.38518 c 0.77627,0.76185 1.4114,1.47783 1.4114,1.59106 0,0.11324 -5.19817,5.13986 -11.55149,11.17026 l -11.55149,10.96438 10.91276,11.06898 10.91276,11.06897 -1.41444,1.44121 -1.41445,1.44122 -10.89191,-10.88828 c -5.99056,-5.98855 -11.0403,-10.88828 -11.22166,-10.88828 -0.18136,0 -5.44772,5.1196 -11.70304,11.37689 -6.25532,6.25729 -11.44831,11.36291 -11.53998,11.34583 -0.0917,-0.0171 -0.75061,-0.69371 -1.4643,-1.5036 z"
       id="path69"
       transform="scale(0.26458333)" />
    <path
       style="fill:#000000;fill-opacity:1;stroke:#000000;stroke-width:3.73907;stroke-dasharray:none;stroke-opacity:1"
       d="m 226.80838,177.34978 -1.19009,-1.45235 1.43362,-1.46076 1.43363,-1.46076 2.21033,2.38368 c 1.21568,1.31103 2.17893,2.41907 2.14057,2.46231 -0.0384,0.0433 -1.14261,0.28149 -2.45386,0.52943 l -2.38411,0.45081 z"
       id="path70"
       transform="scale(0.26458333)" />
    <path
       style="fill:#000000;fill-opacity:1;stroke:#000000;stroke-width:3.73907;stroke-dasharray:none;stroke-opacity:1"
       d="m 98.657617,222.58008 -1.261145,-1.43303 11.372858,-11.48524 11.37285,-11.48524 -8.72923,-9.22735 c -4.80108,-5.07505 -9.60456,-10.20447 -10.67441,-11.39873 l -1.945175,-2.17138 1.420585,-1.3942 1.42059,-1.3942 7.59696,7.85252 c 4.17833,4.31889 8.01514,8.35564 8.52624,8.97055 1.44511,1.73864 4.0596,3.66356 4.97597,3.66356 0.4545,0 1.22025,-0.20451 1.70166,-0.45447 0.48141,-0.24996 1.24627,-0.62619 1.6997,-0.83606 0.45343,-0.20987 3.94069,-3.28166 7.74948,-6.82621 3.80878,-3.54454 8.3129,-7.72656 10.00915,-9.29338 l 3.0841,-2.84875 1.28529,1.3779 c 0.70691,0.75784 1.28529,1.50573 1.28529,1.66197 0,0.43224 -16.8217,16.23975 -20.77519,19.52265 -1.17891,0.97894 -2.28617,1.90158 -2.46059,2.05031 -0.18805,0.16037 0.58724,1.18176 1.90506,2.50976 l 2.22217,2.23933 0.58006,3.11551 0.58006,3.11551 1.1423,-0.0106 c 0.62826,-0.006 1.66314,-0.11716 2.29973,-0.24741 1.15082,-0.23548 1.19221,-0.20202 7.25099,5.86341 l 6.09355,6.10024 -1.4801,1.46732 -1.4801,1.46733 -10.97747,-10.86513 c -6.0376,-5.97582 -11.08381,-10.86512 -11.2138,-10.86512 -0.12998,0 -5.35432,5.1196 -11.60963,11.37688 -6.25532,6.25729 -11.44831,11.36291 -11.53998,11.34583 -0.09168,-0.0171 -0.734194,-0.67593 -1.427823,-1.4641 z"
       id="path71"
       transform="scale(0.26458333)" />
  </g>
</svg>
