<?xml version="1.0" encoding="UTF-8" standalone="no"?>
<!-- Created with Inkscape (http://www.inkscape.org/) -->

<svg
   width="100mm"
   height="100mm"
   viewBox="0 0 99.999995 100"
   version="1.1"
   id="svg1"
   inkscape:version="1.4 (86a8ad7, 2024-10-11)"
   sodipodi:docname="Carita Seria.svg"
   xmlns:inkscape="http://www.inkscape.org/namespaces/inkscape"
   xmlns:sodipodi="http://sodipodi.sourceforge.net/DTD/sodipodi-0.dtd"
   xmlns="http://www.w3.org/2000/svg"
   xmlns:svg="http://www.w3.org/2000/svg">
  <sodipodi:namedview
     id="namedview1"
     pagecolor="#ffffff"
     bordercolor="#000000"
     borderopacity="0.25"
     inkscape:showpageshadow="2"
     inkscape:pageopacity="0.0"
     inkscape:pagecheckerboard="0"
     inkscape:deskcolor="#d1d1d1"
     inkscape:document-units="mm"
     inkscape:zoom="1.5162318"
     inkscape:cx="230.83542"
     inkscape:cy="252.92967"
     inkscape:window-width="1920"
     inkscape:window-height="1111"
     inkscape:window-x="-9"
     inkscape:window-y="-9"
     inkscape:window-maximized="1"
     inkscape:current-layer="layer1" />
  <defs
     id="defs1">
    <inkscape:path-effect
       effect="bspline"
       id="path-effect5"
       is_visible="true"
       lpeversion="1.3"
       weight="33.333333"
       steps="2"
       helper_size="0"
       apply_no_weight="true"
       apply_with_weight="true"
       only_selected="false"
       uniform="false" />
  </defs>
  <g
     inkscape:label="Capa 1"
     inkscape:groupmode="layer"
     id="layer1">
    <ellipse
       style="fill:#ffffff;fill-opacity:1;stroke:#000000;stroke-width:3;stroke-dasharray:none;stroke-opacity:1"
       id="path1-1"
       cx="50"
       cy="50"
       rx="37.168625"
       ry="36.645123" />
    <ellipse
       style="fill:#ffffff;fill-opacity:1;stroke:#000000;stroke-width:3;stroke-dasharray:none;stroke-opacity:1"
       id="path4"
       cx="50"
       cy="50"
       rx="1.4189913"
       ry="1.5423819" />
    <ellipse
       style="fill:#ffffff;fill-opacity:1;stroke:#000000;stroke-width:3;stroke-dasharray:none;stroke-opacity:1"
       id="path4-2"
       cx="50"
       cy="50"
       rx="1.4189913"
       ry="1.5423819" />
    <path
       style="fill:#ffffff;fill-opacity:1;stroke:#000000;stroke-width:3;stroke-dasharray:none;stroke-opacity:1"
       d="m 50.343344,176.57187 c 0,0 0,0 4.195278,0.0617 4.195279,0.0617 12.585835,0.18508 20.976392,0.30847"
       id="path5"
       inkscape:path-effect="#path-effect5"
       inkscape:original-d="m 50.343344,176.57187 v 0 c 8.390557,0.12339 16.781113,0.24678 25.17167,0.37017"
       transform="rotate(-1.1414805,-6305.7977,762.3277)"
       sodipodi:nodetypes="csc" />
    <path
       style="fill:#ffeeaa;fill-opacity:1;stroke:#000000;stroke-width:1.97859;stroke-dasharray:none;stroke-opacity:1"
       d="m 44.904977,84.720215 c -19.49133,-2.90722 -32.86318,-20.56765 -30.09165,-39.74255 1.40986,-9.754201 7.21735,-18.74388 15.62359,-24.184486 11.98495,-7.756784 27.41629,-7.709691 39.30615,0.119957 13.23372,8.714591 18.99079,25.060719 14.05982,39.920259 -4.24378,12.78867 -15.37839,21.97212 -28.98565,23.90635 -2.28568,0.32491 -7.67419,0.31429 -9.91226,-0.0195 z m 12.86942,-29.49928 5.10414,-0.11504 v -1.57088 -1.57088 l -8.4047,0.11574 c -4.62259,0.0637 -10.31567,0.11574 -12.6513,0.11574 h -4.24659 v 1.5705 1.57051 l 7.54716,-2.7e-4 c 4.15093,-1.7e-4 9.84401,-0.0521 12.65129,-0.11536 z m -19.89073,-8.36911 c 1.18578,-0.86391 1.60083,-2.86151 0.86464,-4.16134 -0.57746,-1.019543 -1.37077,-1.488409 -2.51839,-1.488409 -1.00244,0 -1.45586,0.163621 -2.11559,0.763439 -1.51553,1.37788 -1.02364,4.37135 0.8477,5.15876 0.68205,0.28698 2.36981,0.1296 2.92164,-0.27245 z m 28.32944,0.0117 c 1.09001,-0.56367 1.73998,-2.2192 1.38656,-3.53169 -0.81872,-3.040499 -4.95417,-3.058557 -5.77097,-0.0252 -0.29907,1.11069 0.14178,2.62378 0.96304,3.30538 0.83182,0.69034 2.35608,0.80239 3.42137,0.25151 z"
       id="path58" />
    <path
       style="fill:#000000;stroke:#000000;stroke-width:1.74411"
       d="m 145.85346,203.21549 v -2.09861 l 13.11632,-0.007 c 7.21397,-0.004 20.72378,-0.10342 30.02179,-0.22137 9.29801,-0.11796 23.17508,-0.28881 30.83792,-0.37968 l 13.93245,-0.16522 v 2.09886 2.09886 l -7.86979,0.16578 c -17.0135,0.3584 -40.28382,0.59202 -59.69382,0.59928 l -20.34487,0.008 z"
       id="path2"
       transform="scale(0.26458333)" />
    <path
       style="fill:#000000;stroke:#000000;stroke-width:1.74411"
       d="m 241.70375,174.14975 c -1.45027,-0.50761 -2.03761,-0.93831 -2.80947,-2.06016 -2.66646,-3.87556 -1.96171,-9.38819 1.50513,-11.77344 2.97926,-2.04979 6.90545,-1.64645 9.34333,0.95984 1.64012,1.75343 2.08998,2.93191 2.07928,5.44699 -0.007,1.63932 -0.12885,2.40179 -0.55688,3.4839 -0.73262,1.85216 -2.27961,3.39083 -3.9473,3.92609 -1.55032,0.49758 -4.21763,0.50555 -5.61409,0.0168 z"
       id="path3"
       transform="scale(0.26458333)" />
    <path
       style="fill:#000000;stroke:#000000;stroke-width:1.74411"
       d="m 133.37838,174.38177 c -3.54139,-1.85902 -5.0268,-7.56264 -2.95968,-11.36454 0.74942,-1.37837 2.49727,-2.82855 3.84862,-3.19318 1.4916,-0.40248 4.74502,-0.16462 5.89533,0.431 2.76369,1.43103 4.38182,5.356 3.59085,8.71003 -0.38293,1.6238 -1.40892,3.65182 -2.25195,4.45133 -1.27476,1.20895 -6.48059,1.82761 -8.12317,0.96536 z"
       id="path6"
       transform="scale(0.26458333)" />
  </g>
</svg>
